<?xml version="1.0" standalone="no"?>
<!DOCTYPE svg PUBLIC "-//W3C//DTD SVG 20010904//EN"
 "http://www.w3.org/TR/2001/REC-SVG-20010904/DTD/svg10.dtd">
<svg version="1.0" xmlns="http://www.w3.org/2000/svg"
 width="1437.000000pt" height="361.000000pt" viewBox="0 0 1437.000000 361.000000"
 preserveAspectRatio="xMidYMid meet">

<g transform="translate(0.000000,361.000000) scale(0.100000,-0.100000)"
fill="#000000" stroke="none">
<path d="M2955 3478 c-212 -18 -417 -129 -526 -286 -84 -120 -156 -318 -166
-460 -4 -51 -10 -75 -20 -79 -8 -3 -38 4 -67 16 -73 30 -223 30 -292 0 -130
-57 -201 -129 -290 -294 l-49 -90 0 -120 c0 -112 2 -125 27 -173 32 -62 30
-65 -67 -73 -128 -12 -320 -38 -350 -47 -16 -6 -55 -18 -85 -27 -186 -56 -346
-167 -423 -291 -14 -23 -37 -70 -52 -105 -14 -35 -30 -72 -35 -81 -5 -9 -17
-73 -26 -141 -15 -114 -15 -133 -1 -240 13 -93 23 -132 52 -190 75 -154 183
-255 358 -333 82 -36 348 -34 463 4 32 11 93 38 136 60 l76 40 19 -21 c11 -12
32 -41 47 -64 87 -130 296 -250 516 -296 136 -29 313 -28 475 3 59 11 170 46
190 60 6 4 21 11 35 15 46 14 157 86 214 138 31 29 82 90 114 136 31 47 62 86
68 88 6 2 38 -34 72 -79 121 -166 265 -273 444 -328 104 -33 299 -33 410 -1
102 29 199 78 284 141 74 56 82 64 188 189 37 44 72 81 77 81 4 0 35 -24 68
-53 54 -46 108 -79 191 -116 43 -19 192 -41 280 -41 81 0 190 19 227 39 10 5
41 20 68 32 186 85 356 280 424 486 49 148 46 340 -8 473 -45 110 -87 164
-227 288 -69 60 -214 152 -242 152 -8 0 -28 6 -45 14 -112 51 -349 72 -465 41
-37 -10 -83 -26 -102 -37 -58 -31 -59 -30 -75 77 -9 57 -44 206 -55 230 -56
129 -120 228 -187 291 -95 88 -235 148 -379 163 -110 11 -302 -1 -368 -24 -23
-8 -53 -15 -67 -15 -25 0 -28 4 -37 63 -30 177 -53 251 -117 373 -46 88 -66
116 -135 189 -155 166 -346 241 -565 223z m215 -712 l65 -11 5 -78 5 -79 65
-23 c36 -12 80 -30 97 -39 46 -23 54 -21 103 29 24 25 53 45 64 45 55 0 326
-259 326 -311 0 -8 -23 -36 -50 -64 l-50 -51 34 -75 c19 -41 38 -87 41 -102 7
-26 9 -27 81 -27 107 0 109 -4 109 -230 0 -136 -3 -182 -15 -205 -15 -29 -18
-30 -93 -33 -74 -3 -77 -4 -83 -30 -4 -15 -22 -60 -41 -101 l-34 -75 53 -53
52 -53 -19 -36 c-43 -81 -267 -284 -312 -284 -11 0 -41 22 -67 49 l-49 50 -41
-21 c-23 -12 -70 -31 -106 -43 l-65 -22 -3 -71 c-2 -39 -8 -74 -15 -80 -51
-40 -404 -40 -454 0 -8 7 -13 37 -13 82 l0 71 -58 18 c-31 10 -79 29 -107 42
l-50 25 -50 -50 c-28 -28 -58 -50 -67 -50 -50 0 -328 266 -328 314 0 6 23 34
52 63 l52 52 -36 78 c-20 43 -39 88 -43 101 -6 20 -12 22 -79 22 -48 0 -77 5
-84 13 -40 48 -40 396 0 444 7 8 36 13 83 13 l73 0 13 38 c6 20 25 65 42 100
l31 63 -52 52 c-29 29 -52 58 -52 64 0 20 114 155 175 208 91 78 128 104 150
105 11 0 42 -21 68 -47 45 -43 51 -46 75 -36 41 17 155 60 175 67 14 4 17 17
17 74 0 47 5 73 14 81 33 28 276 39 396 17z"/>
<path d="M2858 2191 c-206 -66 -338 -241 -338 -446 0 -343 375 -568 695 -415
296 141 360 526 124 744 -102 95 -208 136 -343 135 -49 0 -103 -7 -138 -18z"/>
<path d="M6300 1760 l0 -1660 40 0 40 0 0 1660 0 1660 -40 0 -40 0 0 -1660z"/>
<path d="M7190 2099 c-73 -14 -184 -74 -227 -123 -79 -90 -116 -202 -115 -350
1 -204 87 -373 226 -441 116 -56 286 -56 397 1 88 44 169 147 194 245 6 24 3
26 -50 38 -31 7 -58 11 -59 9 -1 -1 -11 -25 -21 -52 -39 -107 -124 -167 -245
-174 -203 -11 -323 127 -324 373 0 136 30 224 99 292 67 65 133 88 241 81 110
-7 186 -62 223 -161 8 -20 16 -27 29 -23 9 3 34 8 55 12 46 8 46 18 5 96 -77
145 -242 213 -428 177z"/>
<path d="M7820 1625 l0 -475 55 0 55 0 0 475 0 475 -55 0 -55 0 0 -475z"/>
<path d="M10020 1925 c0 -96 -3 -175 -6 -175 -4 0 -26 18 -49 39 -65 60 -130
73 -221 46 -124 -37 -204 -167 -204 -335 0 -156 66 -281 175 -331 101 -46 192
-33 262 38 24 24 46 43 48 43 3 0 5 -22 5 -50 l0 -50 45 0 45 0 0 475 0 475
-50 0 -50 0 0 -175z m-100 -205 c89 -46 130 -177 99 -320 -26 -121 -151 -185
-257 -131 -70 36 -101 92 -109 196 -10 125 23 209 102 256 40 25 115 25 165
-1z"/>
<path d="M10980 2040 l0 -60 55 0 55 0 0 60 0 60 -55 0 -55 0 0 -60z"/>
<path d="M11210 2045 l0 -55 155 0 155 0 0 -420 0 -420 60 0 60 0 0 420 0 420
155 0 155 0 0 55 0 55 -370 0 -370 0 0 -55z"/>
<path d="M13320 1625 l0 -475 55 0 55 0 0 194 c0 277 12 326 96 373 75 43 175
25 214 -40 18 -29 20 -52 20 -279 l0 -248 56 0 55 0 -3 278 c-3 268 -4 278
-26 317 -29 52 -73 81 -141 96 -87 18 -175 -6 -230 -65 -14 -14 -28 -26 -33
-26 -4 0 -8 79 -8 175 l0 175 -55 0 -55 0 0 -475z"/>
<path d="M8307 1839 c-96 -23 -182 -99 -214 -192 -24 -72 -24 -233 0 -304 51
-148 215 -230 375 -189 168 43 238 153 230 365 -3 92 -7 114 -31 163 -61 125
-213 192 -360 157z m178 -122 c21 -12 53 -41 69 -65 26 -37 30 -52 34 -131 6
-133 -26 -209 -108 -251 -43 -22 -122 -26 -167 -9 -39 14 -92 67 -109 109 -22
51 -28 138 -14 204 13 65 62 129 115 152 49 21 134 17 180 -9z"/>
<path d="M10448 1837 c-59 -17 -90 -37 -124 -83 -39 -51 -44 -133 -12 -189 31
-53 84 -80 235 -122 149 -40 161 -46 169 -80 16 -64 -51 -113 -154 -113 -95 0
-155 34 -178 100 -9 25 -11 25 -61 17 -51 -8 -53 -10 -47 -35 21 -89 87 -153
184 -178 131 -33 274 6 334 93 56 81 44 193 -25 246 -33 25 -140 62 -249 87
-72 17 -108 36 -121 64 -25 55 37 96 144 96 74 0 122 -25 147 -76 8 -17 20
-30 25 -28 6 1 27 5 48 9 28 4 37 11 37 26 0 27 -33 89 -62 116 -53 50 -200
75 -290 50z"/>
<path d="M12127 1840 c-51 -13 -90 -34 -133 -72 -131 -116 -138 -411 -12 -535
67 -66 126 -88 233 -87 79 0 98 3 147 27 32 16 69 42 83 59 27 31 69 107 63
113 -2 2 -26 7 -55 13 l-52 9 -26 -39 c-33 -49 -92 -77 -163 -78 -106 0 -186
71 -206 183 l-7 37 257 0 257 0 -5 78 c-8 128 -62 218 -162 267 -59 29 -158
40 -219 25z m179 -121 c44 -21 77 -62 89 -111 l7 -28 -196 0 c-214 0 -212 -1
-182 58 48 92 182 130 282 81z"/>
<path d="M12864 1841 c-59 -15 -124 -53 -154 -89 -93 -113 -105 -342 -26 -474
119 -200 443 -172 517 44 9 29 17 54 16 55 -1 0 -25 5 -54 11 l-52 9 -6 -29
c-15 -68 -87 -118 -169 -118 -114 0 -178 68 -192 204 -18 172 61 285 197 286
66 0 112 -26 144 -81 19 -34 21 -35 64 -27 54 9 54 10 46 47 -11 51 -59 107
-117 135 -58 29 -159 41 -214 27z"/>
<path d="M8842 1573 c3 -247 5 -272 24 -314 25 -52 65 -85 131 -105 94 -28
179 -7 247 63 l46 46 0 -56 0 -57 50 0 50 0 0 345 0 345 -55 0 -55 0 0 -212
c0 -122 -5 -230 -11 -253 -28 -102 -148 -155 -245 -109 -64 31 -69 50 -72 327
l-4 247 -55 0 -55 0 4 -267z"/>
<path d="M10980 1495 l0 -345 55 0 55 0 0 345 0 345 -55 0 -55 0 0 -345z"/>
</g>
</svg>
